# xmcd CD database file
#
# Track frame offsets:
#	150
#	20079
#	31654
#	50983
#	61747
#	73795
#	98909
#	116497
#	139632
#	160175
#	176516
#	191265
#	204077
#	219866
#	246344
#	267468
#
# Disc length: 3778 seconds
#
# Revision: 0
# Processed by: cddbd v1.5.2PL0 Copyright (c) Steve Scherf et al.
# Submitted via: CDex 1.70beta2
#
DISCID=df0ec010
DTITLE=Various Artist - Jazzy Winter CD 2
DYEAR=2009
DGENRE=Jazz
TTITLE0=Gladys Knight - Stormy Weather
TTITLE1=Carmen McRae - Blue Moon
TTITLE2=Coleman Hawkins - You'd Be So Nice To Come Home To
TTITLE3=Blossom Dearie - Tout Doucement
TTITLE4=Brenda Lee - I'm Sorry
TTITLE5=Kenny Burrell and Jimmy Smith - Fever
TTITLE6=Matt Dusk - It Can Only Get Better
TTITLE7=Jamie Cullum - What A Difference A Day Made
TTITLE8=Gary Burton - Cool Nights
TTITLE9=Stereo Project - Posluchaj mnie
TTITLE10=Gabrielle - Walk On By
TTITLE11=Helen Merrill - Baby Ain't I Good To You
TTITLE12=Wes Montgomery With Don Sebesky - Quiet Thing
TTITLE13=George Benson - The Long And Winding Road 
TTITLE14=Dave Grusin - The Heart Is A Lonely Hunter
TTITLE15=Ella Fitzgerald - What Are You Doing New Year's Eve
EXTD=YEAR: 2009
EXTT0=
EXTT1=
EXTT2=
EXTT3=
EXTT4=
EXTT5=
EXTT6=
EXTT7=
EXTT8=
EXTT9=
EXTT10=
EXTT11=
EXTT12=
EXTT13=
EXTT14=
EXTT15=
PLAYORDER=
